<?xml version="1.0" encoding="UTF-8" standalone="no"?>
<!-- Created with Inkscape (http://www.inkscape.org/) -->

<svg
   xmlns:osb="http://www.openswatchbook.org/uri/2009/osb"
   xmlns:dc="http://purl.org/dc/elements/1.1/"
   xmlns:cc="http://creativecommons.org/ns#"
   xmlns:rdf="http://www.w3.org/1999/02/22-rdf-syntax-ns#"
   xmlns:svg="http://www.w3.org/2000/svg"
   xmlns="http://www.w3.org/2000/svg"
   xmlns:xlink="http://www.w3.org/1999/xlink"
   xmlns:sodipodi="http://sodipodi.sourceforge.net/DTD/sodipodi-0.dtd"
   xmlns:inkscape="http://www.inkscape.org/namespaces/inkscape"
   width="136.44942mm"
   height="136.44942mm"
   viewBox="0 0 136.44942 136.44942"
   version="1.1"
   id="svg8"
   inkscape:version="0.92.1 r15371"
   sodipodi:docname="greenedge.svg">
  <defs
     id="defs2">
    <linearGradient
       gradientTransform="translate(-9.4305941,-42.731359)"
       spreadMethod="pad"
       y2="-164.73024"
       x2="231.53775"
       y1="198.30914"
       x1="374.60172"
       gradientUnits="userSpaceOnUse"
       id="linearGradient6947"
       xlink:href="#linearGradient6943"
       inkscape:collect="always" />
    <linearGradient
       id="linearGradient6943"
       osb:paint="gradient">
      <stop
         style="stop-color:#1746bb;stop-opacity:1"
         offset="0"
         id="stop6939" />
      <stop
         style="stop-color:#000000;stop-opacity:1"
         offset="1"
         id="stop6941" />
    </linearGradient>
    <filter
       id="filter6683"
       inkscape:label="Drop Shadow"
       style="color-interpolation-filters:sRGB">
      <feFlood
         id="feFlood6673"
         result="flood"
         flood-color="rgb(0,0,0)"
         flood-opacity="0.498039" />
      <feComposite
         id="feComposite6675"
         result="composite1"
         operator="in"
         in2="SourceGraphic"
         in="flood" />
      <feGaussianBlur
         id="feGaussianBlur6677"
         result="blur"
         stdDeviation="3"
         in="composite1" />
      <feOffset
         id="feOffset6679"
         result="offset"
         dy="6"
         dx="6" />
      <feComposite
         id="feComposite6681"
         result="composite2"
         operator="over"
         in2="offset"
         in="SourceGraphic" />
    </filter>
    <filter
       id="filter7964"
       inkscape:label="Drop Shadow"
       style="color-interpolation-filters:sRGB">
      <feFlood
         id="feFlood7954"
         result="flood"
         flood-color="rgb(0,0,0)"
         flood-opacity="0.498039" />
      <feComposite
         id="feComposite7956"
         result="composite1"
         operator="in"
         in2="SourceGraphic"
         in="flood" />
      <feGaussianBlur
         id="feGaussianBlur7958"
         result="blur"
         stdDeviation="3"
         in="composite1" />
      <feOffset
         id="feOffset7960"
         result="offset"
         dy="6"
         dx="6" />
      <feComposite
         id="feComposite7962"
         result="composite2"
         operator="over"
         in2="offset"
         in="SourceGraphic" />
    </filter>
    <filter
       id="filter7976"
       inkscape:label="Drop Shadow"
       style="color-interpolation-filters:sRGB">
      <feFlood
         id="feFlood7966"
         result="flood"
         flood-color="rgb(0,0,0)"
         flood-opacity="0.498039" />
      <feComposite
         id="feComposite7968"
         result="composite1"
         operator="in"
         in2="SourceGraphic"
         in="flood" />
      <feGaussianBlur
         id="feGaussianBlur7970"
         result="blur"
         stdDeviation="3"
         in="composite1" />
      <feOffset
         id="feOffset7972"
         result="offset"
         dy="6"
         dx="6" />
      <feComposite
         id="feComposite7974"
         result="composite2"
         operator="over"
         in2="offset"
         in="SourceGraphic" />
    </filter>
  </defs>
  <sodipodi:namedview
     id="base"
     pagecolor="#ffffff"
     bordercolor="#666666"
     borderopacity="1.0"
     inkscape:pageopacity="0.0"
     inkscape:pageshadow="2"
     inkscape:zoom="0.7"
     inkscape:cx="398.5353"
     inkscape:cy="395.64187"
     inkscape:document-units="mm"
     inkscape:current-layer="layer1"
     showgrid="false"
     inkscape:window-width="1920"
     inkscape:window-height="1017"
     inkscape:window-x="1912"
     inkscape:window-y="-8"
     inkscape:window-maximized="1"
     fit-margin-top="0"
     fit-margin-left="0"
     fit-margin-right="0"
     fit-margin-bottom="0" />
  <metadata
     id="metadata5">
    <rdf:RDF>
      <cc:Work
         rdf:about="">
        <dc:format>image/svg+xml</dc:format>
        <dc:type
           rdf:resource="http://purl.org/dc/dcmitype/StillImage" />
        <dc:title></dc:title>
      </cc:Work>
    </rdf:RDF>
  </metadata>
  <g
     inkscape:label="Layer 1"
     inkscape:groupmode="layer"
     id="layer1"
     transform="translate(-44.901779,-142.83036)">
    <g
       id="g4617">
      <circle
         r="68.224709"
         cy="211.05507"
         cx="113.12649"
         id="path4606"
         style="opacity:0.81800022;vector-effect:none;fill:#fffffb;fill-opacity:0.98994978;stroke:none;stroke-width:3.29668522;stroke-linecap:butt;stroke-linejoin:miter;stroke-miterlimit:4;stroke-dasharray:none;stroke-dashoffset:0;stroke-opacity:1" />
      <circle
         r="66.243507"
         cy="211.05507"
         cx="113.12649"
         id="path4604"
         style="opacity:0.81800022;vector-effect:none;fill:#47a73e;fill-opacity:1;stroke:none;stroke-width:5.22112894;stroke-linecap:butt;stroke-linejoin:miter;stroke-miterlimit:4;stroke-dasharray:none;stroke-dashoffset:0;stroke-opacity:1" />
      <circle
         r="60.52705"
         cy="211.05507"
         cx="113.12649"
         id="path4602"
         style="opacity:0.81800022;vector-effect:none;fill:#000000;fill-opacity:0.98994978;stroke:none;stroke-width:3.38088489;stroke-linecap:butt;stroke-linejoin:miter;stroke-miterlimit:4;stroke-dasharray:none;stroke-dashoffset:0;stroke-opacity:1" />
      <g
         inkscape:label="Layer 1"
         id="layer1-5"
         transform="matrix(0.19700118,0,0,0.19700118,105.40251,184.81215)">
        <circle
           style="opacity:1;fill:url(#linearGradient6947);fill-opacity:1;stroke:#fffaff;stroke-width:4.57600021;stroke-miterlimit:4;stroke-dasharray:none;stroke-opacity:1"
           id="path4574"
           cx="40.867516"
           cy="132.89922"
           r="300.86334" />
        <g
           transform="matrix(1.391366,0,0,1.3625831,155.43235,-76.336101)"
           id="layer1-7-6"
           inkscape:label="Layer 1"
           style="fill:#f2f2f2;fill-opacity:1;filter:url(#filter6683)">
          <path
             sodipodi:nodetypes="ccccccccccccsccccscccccsssccccscccccccccccccsccccsccccccccccccccccccccccccccccccccccccccscccccssccccccccssssccccccccscscsccccsccccccccccscccscscccccccsscccsccccccccccccccscccccscscsscccsssssccccccccccccscccccccccccccccsccccccccccccscscccscccsccccccccccccccccsccsssccssccccccsccsccccccsccsccssccccccc"
             inkscape:connector-curvature="0"
             id="path90-92"
             d="m -127.53497,-39.593132 c 0.91888,0.36761 1.19972,1.892099 0.65531,3.557042 -1.33864,4.093864 -1.30923,16.462591 0.0481,20.202267 0.49714,1.369713 0.68478,1.541406 1.54303,1.411865 5.01835,-0.757538 8.24386,-0.990909 11.04509,-0.799101 8.74183,0.598568 12.81767,1.036469 15.540362,1.669656 3.933181,0.914685 9.047957,2.212817 10.219242,2.593641 0.737858,0.239907 1.621641,-0.0209 4.096304,-1.209073 4.012884,-1.926634 7.322899,-3.383765 8.509319,-3.745961 1.498539,-0.457469 7.125588,-3.490315 8.53612,-4.600778 1.605748,-1.264088 2.575251,-1.081776 4.992571,0.938854 2.806939,2.3463 4.618859,6.640289 6.010314,14.2434743 1.269138,6.93493 1.715735,11.954364 1.304332,14.659872 -0.186239,1.2247557 -0.350876,2.6274887 -0.365829,3.1172057 -0.01501,0.489731 -0.213003,1.074258 -0.440075,1.298974 -9.467006,0.557777 -13.475738,0.146528 -22.918371,-0.202104 -4.108634,9.627575 -11.551096,18.704892 -18.435528,25.656318 -6.247271,6.241229 -6.153981,5.699471 -1.514684,8.795931 5.002377,3.338794 9.64027,5.358064 15.636445,6.807914 1.891272,0.586154 6.532537,1.600306 6.301201,3.762148 -7.956957,11.741235 -38.754943,10.569838 -50.137713,8.834436 -3.03803,-0.492901 -6.00549,-1.37054 -7.04137,-2.082546 -0.85539,-0.587992 -2.19455,-0.651353 -3.13443,-0.148352 -1.73193,0.926889 -19.93212,6.200523 -27.12335,7.85914 -8.51005,1.962824 -15.40013,2.638191 -24.86611,2.437392 -14.49562,-0.307532 -24.34314,-1.828781 -33.54418,-5.181924 -2.84057,-1.035221 -3.37665,-1.368998 -3.87548,-2.413055 -0.53389,-1.117406 -0.52466,-1.362812 0.11853,-3.154659 0.81907,-2.281887 5.65664,-10.498524 7.57573,-12.867477 0.73344,-0.905329 2.00154,-2.60311 2.81805,-3.772823 6.58387,-9.432008 12.49504,-16.67412 17.69085,-21.674027 3.68431,-3.545401 9.94517,-9.019076 12.84899,-11.233493 0.96194,-0.733565 3.0851,-2.514864 4.71807,-3.958444 1.63301,-1.4435797 4.13818,-3.3604937 5.56704,-4.2598327 1.4289,-0.899339 3.68353,-2.337182 5.01035,-3.195211 1.32682,-0.858016 3.10842,-1.994022 3.95913,-2.524432 1.32466,-0.82592097 1.63441,-1.27284097 2.15747,-3.113054 1.42847,-5.52068 4.18222,-10.8024223 7.19399,-14.9528853 4.68834,-5.314972 21.17423,-25.712764 29.30124,-22.756674 z m 5.77627,36.6910863 c -0.52196,0.796618 -0.55137,1.170289 -0.18763,2.38432803 0.34319,1.145447 0.65584,1.488972 1.52991,1.68094897 0.60422,0.132697 1.43819,0.133538 1.85327,0.0014 1.76751,-0.56097497 2.21461,-3.996809 0.60472,-4.647124 -1.61314,-0.651619 -3.14659,-0.417547 -3.80027,0.580095 z m 11.19056,16.6301307 c -0.95754,0.700167 -0.92364,3.883596 0.0491,4.604916 0.734,0.544311 2.4932,0.370206 3.33727,-0.330326 0.70566,-0.585649 0.63025,-3.274998 -0.11488,-4.098408 -0.72398,-0.799999 -2.30201,-0.884976 -3.27138,-0.176182 z m -73.80365,23.064613 c -3.59797,9.600278 3.26439,21.890803 12.17851,22.077126 4.96423,-0.01459 11.50082,-2.803095 14.92483,-6.366787 3.33549,-5.376972 3.05892,-12.70824 0.24953,-17.720239 -7.67981,-10.215497 -22.0995,-7.612682 -27.35287,2.0099 z m 77.54477,-6.297381 c -1.51194,1.511921 -0.80089,5.37118 0.98904,5.36815 3.60865,-0.633244 3.0662,-3.352513 1.82887,-5.287297 -0.69289,-0.801233 -2.05837,-0.840411 -2.81791,-0.0808 z m 55.258164,-52.33143 c 57.3452122,13.6873523 99.496845,47.250825 123.959451,84.2487 18.03902,28.621886 28.143985,57.040073 29.023445,86.092083 0.89892,9.16479 0.91615,27.45804 0.0333,35.25789 -0.70919,8.09467 -2.119975,14.43961 -3.969325,22.63932 -19.15398,83.99338 -79.19414,131.68623 -168.716994,140.45896 -5.503441,0.6075 -18.735435,0.79418 -25.793958,0.36388 -43.155383,-2.46304 -81.825023,-19.85538 -113.931033,-49.70894 -15.91196,-14.79114 -23.40802,-23.82183 -30.80669,-37.1136 -1.94556,-2.43285 -3.03425,-5.50075 -4.2459,-8.03796 -0.81473,-1.62628 -3.12892,-6.6146 -3.93291,-8.47759 -0.58894,-1.36471 -2.11709,-4.80663 -2.88359,-6.49489 -2.29984,-5.56687 -4.97751,-10.54999 -6.57255,-16.32999 -0.13467,-0.51031 -0.54911,-1.60131 -0.92107,-2.42446 -0.37197,-0.82313 -0.8719,-2.22307 -1.111,-3.11099 -2.42836,-8.33727 -5.15894,-15.85908 -5.95141,-23.81682 -0.2278,-2.32957 -0.66385,-6.5737 -0.9689,-9.43146 -0.88942,-8.33139 -1.09146,-29.48152 -0.36232,-37.92994 0.62328,-7.22212 1.41523,-13.14691 2.27198,-16.99816 0.27245,-1.22476 0.76974,-3.47942 1.10506,-5.01035 0.33536,-1.53096 0.85781,-3.7021 1.16103,-4.82476 2.36107,-8.74164 2.39726,-8.85851 3.44277,-11.11766 1.03979,-2.24692 2.56174,-3.86422 4.41437,-4.691 1.13836,-0.50804 1.30332,-0.48994 2.35417,0.25832 1.43146,1.0193 2.69733,3.81007 2.17275,4.79021 -0.20327,0.37987 -0.36962,0.97139 -0.36962,1.31455 0,0.34315 -0.60597,1.89899 -1.34659,3.45743 -2.35929,4.96433 -3.57928,8.55396 -4.36874,12.85415 -0.22484,1.22474 -0.5216,2.39962 -0.65948,2.61082 -0.13788,0.2112 -0.51822,1.79781 -0.84523,3.52578 -0.32702,1.728 -0.75876,3.72635 -0.95943,4.44077 -1.49345,5.31702 -2.44629,21.85139 -1.85008,32.10327 1.05437,18.12923 1.16615,19.13491 3.1563,28.39191 0.32914,1.53095 0.82769,3.95259 1.1079,5.38148 0.28019,1.42887 1.28457,5.60414 2.23191,9.2784 0.94735,3.67425 1.88239,7.34849 2.0779,8.16498 0.19547,0.81651 0.49843,1.81857 0.67323,2.22683 0.28014,0.65426 1.19129,3.59792 2.355,7.60828 1.01511,3.49827 1.80294,5.51099 3.99492,10.20625 0.57179,1.22475 1.14102,2.47733 1.265,2.78352 3.69247,6.5077 8.48625,15.2589 14.2347,19.79071 5.80786,4.39153 6.49104,4.76432 8.41618,4.5923 4.29236,-0.3835 4.64813,-3.86018 1.14687,-11.20768 -1.18475,-2.48626 -2.42401,-5.30184 -2.42401,-5.50735 0,-0.0916 -0.93325,-1.54502 -2.07389,-3.22971 -1.14063,-1.68471 -2.17225,-3.33077 -2.29249,-3.65791 -0.12021,-0.32713 -0.63731,-1.26284 -1.14905,-2.07934 -2.74337,-4.37701 -8.04206,-16.50239 -10.29865,-23.56713 -0.489,-1.53094 -1.05267,-3.11754 -1.25261,-3.52581 -0.39254,-0.80154 -1.77624,-5.93309 -3.20238,-11.87634 -0.48981,-2.04125 -1.04225,-4.2959 -1.22765,-5.01034 -0.1854,-0.71444 -0.68896,-3.38662 -1.119,-5.93818 -0.43006,-2.55157 -0.9632,-5.55778 -1.1848,-6.68044 -0.59646,-3.02222 -0.84084,-21.23222 -0.36358,-27.09293 0.44587,-5.47519 1.38102,-13.85331 1.67775,-15.03102 0.10282,-0.40823 0.54542,-3.08041 0.98343,-5.93816 0.43803,-2.85777 0.94608,-5.35458 1.12899,-5.54848 0.18292,-0.19393 0.33259,-0.64195 0.33259,-0.99562 0,-0.35368 0.34427,-0.75231 0.76503,-0.88585 0.9805,-0.31122 3.25527,1.17876 3.55277,2.32704 0.12948,0.49984 -0.31983,2.36295 -1.11882,4.63922 -1.79851,5.12378 -2.04177,6.27415 -2.64842,12.52559 -0.28722,2.95982 -0.70751,6.80108 -0.93395,8.53615 -0.60922,4.6676 -0.68802,19.58136 -0.12863,24.35445 0.63694,5.43551 1.13287,8.74226 1.41575,9.44016 0.12877,0.3179 0.46867,1.98802 0.75521,3.71138 0.6221,3.74208 1.4018,7.21546 2.24464,9.99941 0.33988,1.12267 0.83887,3.04331 1.10884,4.26807 0.54303,2.4635 2.49968,8.39575 3.5858,10.8715 0.3844,0.87623 0.95974,2.29582 1.27856,3.15466 1.76224,4.74714 3.26479,8.16743 5.57731,12.69563 2.43377,5.96169 6.31407,10.33346 9.73708,14.4478 3.99224,4.82636 9.42618,7.9839 10.21268,5.93433 0.66617,-1.73602 0.18909,-5.49897 -1.23389,-9.73207 -2.2529,-6.70203 -3.1605,-9.05364 -4.03876,-10.46449 0,0 -0.88249,-2.15907 -1.34696,-3.05915 -0.29203,-0.55984 -0.89481,-2.14644 -1.33946,-3.52579 -0.44466,-1.37933 -1.19713,-3.59347 -1.67217,-4.92027 -0.77503,-2.16474 -1.80722,-5.62336 -2.76906,-9.27841 -0.18801,-0.71444 -0.51218,-2.55156 -0.72038,-4.08249 -0.42127,-3.09754 -1.03517,-6.51919 -2.16412,-12.06192 -1.02927,-4.5643 -0.83658,-9.13734 -1.62237,-13.73206 -0.52721,-2.97974 -0.50289,-21.40161 0.0296,-22.39656 0.87994,-2.41232 -0.2984,-5.69531 1.17277,-7.61774 1.1017,-1.40056 1.97168,-1.78549 3.08162,-1.36351 1.46196,0.55585 1.90122,3.68978 0.76577,5.4635 -0.5006,0.78202 -0.85629,2.79186 -1.66328,9.39878 -0.44168,3.61596 -0.22445,15.03825 0.36176,19.02257 0.21759,1.47888 0.54428,3.94147 0.72597,5.47239 0.30385,2.56018 1.77363,9.62008 3.12927,15.03102 0.30685,1.22476 0.74562,2.97837 0.97506,3.89694 0.59156,2.36836 1.44759,4.72469 2.47312,6.80748 0.48669,0.98842 0.88489,1.95571 0.88489,2.14951 0,0.1938 0.57066,1.35143 1.06953,2.65648 2.89508,7.85953 12.27818,24.1175 20.64856,24.38466 3.8384,-0.84949 4.60277,-5.52949 4.46353,-8.16293 -0.2215,-3.45585 -0.82263,-7.95476 -1.25146,-9.36583 -0.2025,-0.66636 -0.73037,-2.88166 -1.17302,-4.92291 -0.44267,-2.04125 -0.94931,-4.04538 -1.12588,-4.45363 -1.01101,-3.72565 -1.91533,-7.77432 -2.78684,-11.31965 -0.27545,-1.12269 -1.01554,-3.96189 -1.64464,-6.30932 -0.62912,-2.34743 -1.38922,-6.02169 -1.6891,-8.165 -0.2999,-2.1433 -0.72947,-5.066 -0.95461,-6.49487 -0.22514,-1.42889 -0.43537,-7.44128 -0.4672,-13.36088 -0.0516,-9.59358 0.0126,-10.90021 0.59162,-12.02617 0.45958,-1.03749 2.21358,-2.67256 2.21358,-2.67256 2.9545,-1.4254 3.23234,-0.0961 2.15856,3.56465 -0.9418,3.21076 -1.1776,5.40624 -1.13605,10.57737 0.099,12.32671 0.95695,18.94053 3.69424,28.47996 0.69017,2.02945 0.75182,4.37434 1.31069,6.27142 0.29697,0.99302 0.89604,3.05809 1.33126,4.58903 0.43524,1.53093 1.02731,3.30979 1.31574,3.95302 0.52102,1.9248 1.3914,3.63659 2.13332,5.32538 1.2669,2.89103 2.89226,5.41271 4.66865,6.55976 0,0 1.30116,0.97183 2.67687,1.04853 1.38966,-0.71767 1.95013,-1.74493 2.13888,-3.68616 0.067,-0.6898 0.83737,-8.01382 0.38557,-11.90155 -0.23723,-2.04125 -0.55772,-6.13303 -0.71223,-9.09285 -0.15451,-2.95982 -0.41486,-7.3021 -0.57855,-9.64953 -0.30842,-4.4227 -0.29672,-18.30985 0.0168,-20.00441 0.0982,-0.53062 0.35302,-3.46995 0.56628,-6.53182 0.45776,-6.57221 1.2152,-12.42392 2.04167,-15.77326 0.32741,-1.32683 0.72972,-3.08043 0.89405,-3.89695 0.97896,-4.86421 2.26334,-9.08538 3.4719,-11.41054 1.73888,-3.34545 3.76087,-3.94198 5.31609,-1.56843 0.69466,1.06019 0.56018,1.49693 -2.33926,7.59749 -2.86731,6.03297 -3.55986,8.20215 -4.79901,15.03102 -1.20056,6.61621 -1.61162,16.07119 -0.84711,19.48465 1.57853,7.42111 0.82189,16.1402 6.99238,20.58144 1.39973,0.96999 1.64045,1.02241 2.92666,0.63706 2.82732,-0.84709 3.62154,-4.69935 4.87198,-23.63089 0.20225,-3.06187 0.61014,-6.7361 0.90644,-8.16499 0.85142,-4.10592 1.27236,-6.52284 1.51903,-8.72169 0.12597,-1.12269 0.56332,-3.21032 0.97196,-4.63921 0.40865,-1.42887 0.89644,-3.18249 1.08399,-3.89694 0.18755,-0.71442 0.6931,-2.21753 1.12346,-3.34022 0.43035,-1.12268 0.94857,-2.60029 1.1516,-3.2836 0.47253,-1.59027 2.99764,-6.32783 4.78194,-8.97177 2.97623,-4.41012 6.59544,-6.90259 9.54089,-6.57059 0.99095,0.11165 1.97999,0.51633 2.53385,1.03665 0.80914,0.76015 0.88311,1.05905 0.67652,2.73374 -0.12751,1.03413 -0.49164,2.29777 -0.80902,2.80808 -2.45229,3.35881 -5.842,6.10587 -8.17492,9.22501 -1.05048,1.36153 -3.13568,6.50236 -4.31197,10.63077 -0.34897,1.22477 -0.78875,2.73662 -0.97729,3.35972 -0.3246,1.07276 -0.90475,3.69419 -1.2688,5.73313 -0.17211,0.9639 -0.92408,13.54151 -0.96522,16.14441 0.10239,21.64215 4.14732,38.75207 16.35207,55.48963 50.610384,58.09383 129.0884592,12.32581 154.400031,-24.49977 13.439183,-17.71289 18.547563,-41.64183 18.654772,-63.09312 0.0181,-12.01786 -0.09987,-16.97037 -0.433131,-18.18566 C 35.900347,104.97283 23.927482,82.884973 9.6787202,65.000506 -9.0223848,42.673653 -30.585639,31.982985 -50.510869,16.879896 c -2.520672,-1.642906 -0.844493,-9.4238857 -1.40847,-14.7884157 -0.555575,-7.814533 -3.575755,-16.5402443 -6.161639,-22.5081403 -0.372941,-0.846414 -0.577275,-1.639722 -0.454103,-1.762895 0.434352,-0.434352 5.500552,-0.18457 6.966253,0.343442 z M -1.6697108,152.77271 c 1.13196604,3.16411 0.92447604,3.03172 4.642733,2.96218 5.254304,-0.0983 5.372469,-0.0809 5.797128,0.85104 0.633258,1.38984 -0.430003,2.85322 -3.450576,4.74906 -1.489042,0.93459 -2.674662,1.93449 -2.640422,2.22682 0.08991,0.76782 1.377989,4.07123 2.333297,5.98405 0.461031,0.92313 0.767371,2.124 0.697754,2.73528 -0.100995,0.88623 -0.321825,1.11225 -1.183375,1.21081 -0.66618,0.0762 -1.354817,-0.14758 -1.855685,-0.603 -1.112511,-1.01162 -5.398981,-3.65375 -7.040022,-4.33943 -1.302761,-0.54431 -1.453329,-0.52778 -3.184691,0.34955 -0.999493,0.50649 -2.5703282,1.57264 -3.4907362,2.36926 -2.058154,1.78133 -3.551544,2.24575 -4.231442,1.31593 -0.645097,-0.88221 -0.603338,-1.64498 0.205091,-3.74615 0.669111,-1.25893 0.859811,-2.9025 1.468703,-4.04971 0.388581,-0.72609 0.201711,-0.92448 -2.359668,-2.50516 -1.529931,-0.94415 -2.999391,-1.57761 -3.13575,-1.71666 -1.007446,-1.02725 -0.89579,-1.89562 -0.476195,-2.56261 0.426357,-0.67774 4.159665,-1.47652 7.022755,-1.50255 l 1.904415,-0.0174 1.3832772,-3.24743 c 1.595018,-3.74453 2.449176,-6.46113 3.495772,-6.73019 2.430365,0.67865 3.491157,4.59667 4.097637,6.26632 z m -44.8976662,7.7011 c 1.275506,1.53223 3.806727,6.58704 4.433854,8.85434 0.692635,2.50412 0.286491,2.39382 8.591625,2.33293 12.850042,-0.0943 13.33729,-0.0181 12.829422,2.00548 -3.409014,3.59571 -5.562678,4.2646 -9.701611,7.18951 -1.224756,0.86688 -3.176345,2.08118 -4.336884,2.69848 -2.410502,1.28215 -2.151084,0.58865 -0.03914,6.48419 0.666698,1.79418 1.407404,3.05851 1.858434,4.05598 0.868297,1.44836 1.83442,4.88568 0.308935,5.31637 -1.19168,0.27335 -2.721667,-0.076 -4.622141,-1.61134 -1.84978,-1.68925 -4.207021,-2.65355 -6.19407,-4.09952 -1.817517,-1.05249 -3.401369,-1.86796 -5.171488,-2.95713 l -2.2215,1.23385 c -2.181088,1.17544 -4.577942,2.46169 -6.489581,3.61284 -3.698984,2.23205 -5.712966,3.71349 -6.81626,3.30983 -0.877331,-0.321 -1.098778,-1.01395 -0.814657,-2.52834 0.128348,-0.6844 0.979196,-2.59261 1.890696,-4.24045 2.641068,-4.77472 3.884536,-7.26411 3.884536,-7.77677 0,-0.58376 -8.016356,-3.94134 -9.961465,-5.1251 -3.600372,-2.19115 -3.616756,-3.04267 -3.571743,-3.80587 0.05092,-0.86425 2.033031,-2.15336 6.481628,-2.40102 2.419016,-0.30773 6.058791,-0.33744 7.793857,-0.43422 1.735065,-0.0968 3.321666,-0.23122 3.525776,-0.2988 0.204137,-0.0676 0.685536,-1.10438 1.069797,-2.30407 0.384247,-1.19969 1.027408,-3.0998 1.429245,-4.22249 0.401822,-1.12269 0.987177,-2.90171 1.300769,-3.95335 0.398975,-1.338 0.838714,-2.03448 1.464509,-2.31961 1.406772,-0.64097 1.839736,-0.50247 3.077383,0.98428 z m -50.864305,10.39994 c 1.757088,2.16612 2.737364,10.49769 3.720249,10.47048 l 5.749815,-0.15913 c 5.000553,-0.1383 5.847865,-0.0776 6.502388,0.46691 0.79241,0.65915 -0.122177,2.29663 -0.122177,2.29663 -1.256991,1.90297 -4.54105,3.72164 -6.974052,4.46494 -0.273993,0.007 -0.788749,0.23242 -1.143875,0.50206 -0.6077,0.46141 -0.590054,0.62988 0.300069,2.86449 0.520156,1.30584 1.186504,2.90053 1.480738,3.54374 0.6705,1.73157 1.920084,3.43709 1.844043,5.17656 -0.452924,1.33299 -1.23825,0.97444 -3.053214,0.20348 -2.070119,-1.64943 -9.118333,-5.9881 -9.731812,-5.99065 -0.290124,-0.001 -0.791161,0.21999 -1.113422,0.4915 -0.322248,0.27154 -2.339548,1.5463 -4.482838,2.83281 -2.14333,1.28651 -4.59228,2.81796 -5.44216,3.40323 -0.84985,0.58527 -1.8758,1.06414 -2.27986,1.06414 -1.58878,0 -1.60393,-3.07426 -0.0323,-6.54599 0.63411,-1.40076 1.55265,-3.42822 2.04123,-4.50545 1.01423,-2.23622 0.49285,-2.30945 0.49285,-2.30945 -0.054,-0.21071 -1.39651,-0.55485 -3.06186,-1.23301 -4.2915,-1.98448 -6.72108,-4.88658 -4.58464,-5.69884 2.38326,-0.77381 4.8693,-0.8534 6.75833,-0.86201 h 4.98186 l 2.26138,-4.71401 c 3.466205,-7.22558 3.95135,-7.70028 5.889206,-5.76243 z"
             style="fill:#f2f2f2;fill-opacity:1;stroke-width:0.3711361" />
        </g>
      </g>
    </g>
  </g>
</svg>
